<?xml version="1.0" encoding="UTF-8" standalone="no"?><!-- Generator: Gravit.io --><svg xmlns="http://www.w3.org/2000/svg" xmlns:xlink="http://www.w3.org/1999/xlink" style="isolation:isolate" viewBox="0 0 54 54" width="54pt" height="54pt"><defs><clipPath id="_clipPath_j85RIRFzmMYo2WUMaBbamfZ2Dn2S9iwM"><rect width="54" height="54"/></clipPath></defs><g clip-path="url(#_clipPath_j85RIRFzmMYo2WUMaBbamfZ2Dn2S9iwM)"><g><circle vector-effect="non-scaling-stroke" cx="27" cy="27" r="27" fill="rgb(63,55,52)"/><circle vector-effect="non-scaling-stroke" cx="26.999999999999996" cy="27" r="23.000000000000004" fill="rgb(206,204,197)"/><rect x="43" y="23" width="2" height="8" transform="matrix(0,1,-1,0,71,-17)" fill="rgb(75,66,59)"/><rect x="26" y="6" width="2" height="8" transform="matrix(1,0,0,1,0,0)" fill="rgb(75,66,59)"/><rect x="17.134" y="7.964" width="2" height="8" transform="matrix(0.866,-0.5,0.5,0.866,-3.553,10.67)" fill="rgb(75,66,59)"/></g><rect x="40.964" y="14.794" width="2" height="8" transform="matrix(0.5,0.866,-0.866,0.5,37.258,-26.945)" fill="rgb(75,66,59)"/><rect x="10.964" y="14.794" width="2" height="8" transform="matrix(0.5,-0.866,0.866,0.5,-10.294,19.758)" fill="rgb(75,66,59)"/><rect x="9" y="23" width="2" height="8" transform="matrix(0,-1,1,0,-17,37)" fill="rgb(75,66,59)"/><rect x="10.964" y="31.134" width="2" height="8" transform="matrix(-0.5,-0.866,0.866,-0.5,-12.481,63.062)" fill="rgb(75,66,59)"/><rect x="17.134" y="37.964" width="2" height="8" transform="matrix(-0.866,-0.5,0.5,-0.866,12.856,87.373)" fill="rgb(75,66,59)"/><rect x="26" y="40" width="2" height="8" transform="matrix(-1,0,0,-1,54,88)" fill="rgb(75,66,59)"/><rect x="35.134" y="37.964" width="2" height="8" transform="matrix(-0.866,0.5,-0.5,-0.866,88.409,60.239)" fill="rgb(75,66,59)"/><rect x="40.964" y="31.134" width="2" height="8" transform="matrix(-0.5,0.866,-0.866,-0.5,93.373,16.359)" fill="rgb(75,66,59)"/><rect x="35.134" y="7.964" width="2" height="8" transform="matrix(0.866,0.5,-0.5,0.866,10.823,-16.464)" fill="rgb(75,66,59)"/></g></svg>